<svg xmlns="http://www.w3.org/2000/svg" viewBox="0 0 64 64" aria-hidden="true">
  <defs>
    <linearGradient id="p" x1="0" y1="0" x2="1" y2="1">
      <stop offset="0" stop-color="#2f6bff" stop-opacity=".95"/>
      <stop offset="1" stop-color="#2f6bff" stop-opacity=".35"/>
    </linearGradient>
  </defs>
  <rect x="6" y="6" width="52" height="52" rx="16" fill="rgba(255,255,255,.06)" stroke="rgba(255,255,255,.10)"/>
  <!-- stylized "PS" monogram -->
  <path d="M30 18c6.2 0 10 3.3 10 8.2 0 5.2-4.1 8.7-11.2 8.7h-1.2v-3.9h1.2c4.5 0 7-1.8 7-4.7 0-2.6-2.2-4.3-5.9-4.3H28v25.5c0 1.6-1.3 2.9-2.9 2.9h-1.1V18h6z"
        fill="url(#p)"/>
  <path d="M36.5 41.2c3.6-1.2 7.1-1.2 9.5-.3 1.5.6 2.3 1.6 2.2 2.7-.2 1.6-2.1 2.9-4.9 3.8-3.7 1.2-8.5 1.2-12.9 0v-3.4c3.3 1 6.9 1 10 0 1.5-.5 2.4-1 2.4-1.4 0-.3-.4-.6-1.1-.8-1.7-.5-4.6-.3-8.4.9l-2.9.9v-3.3l6.1-1.9z"
        fill="rgba(233,238,252,.9)"/>
</svg>
